<svg width="227" height="227" viewBox="0 0 227 227" fill="none" xmlns="http://www.w3.org/2000/svg">
<path d="M135.835 113.497C135.835 125.765 125.889 135.711 113.621 135.711C101.351 135.711 91.405 125.765 91.405 113.497C91.405 101.227 101.351 91.2811 113.621 91.2811C125.889 91.2811 135.835 101.227 135.835 113.497Z" stroke="#01BF63" stroke-width="4" stroke-miterlimit="10" stroke-linecap="round" stroke-linejoin="round"/>
<path d="M113.633 2.42761C52.2778 2.42761 2.55127 52.1512 2.55127 113.485C2.55127 174.822 52.2778 224.567 113.633 224.567C174.99 224.567 224.69 174.822 224.69 113.485C224.69 52.1512 174.99 2.42761 113.633 2.42761ZM113.633 202.353C64.5517 202.353 24.7652 162.545 24.7652 113.485C24.7652 64.4162 64.5517 24.6297 113.633 24.6297C162.71 24.6297 202.476 64.4162 202.476 113.485C202.476 162.545 162.71 202.353 113.633 202.353Z" stroke="#01BF63" stroke-width="4" stroke-miterlimit="10" stroke-linecap="round" stroke-linejoin="round"/>
<path d="M91.4067 113.497C91.4067 110.884 91.9395 108.415 92.7662 106.089H25.1323C24.9394 108.534 24.7649 110.985 24.7649 113.483C24.7649 115.986 24.9394 118.443 25.1438 120.892H92.7658C91.9414 118.568 91.4067 116.097 91.4067 113.497Z" stroke="#01BF63" stroke-width="4" stroke-miterlimit="10" stroke-linecap="round" stroke-linejoin="round"/>
<path d="M202.1 106.089H134.478C135.302 108.413 135.835 110.884 135.835 113.498C135.835 116.098 135.302 118.569 134.478 120.895H202.1C202.302 118.447 202.477 115.987 202.477 113.484C202.477 110.986 202.302 108.535 202.1 106.089Z" stroke="#01BF63" stroke-width="4" stroke-miterlimit="10" stroke-linecap="round" stroke-linejoin="round"/>
<path d="M106.213 134.343V201.974C108.663 202.178 111.121 202.352 113.633 202.352C116.134 202.352 118.582 202.178 121.03 201.974L121.027 134.343C118.697 135.169 116.233 135.711 113.621 135.711C111.008 135.711 108.537 135.169 106.213 134.343Z" stroke="#01BF63" stroke-width="4" stroke-miterlimit="10" stroke-linecap="round" stroke-linejoin="round"/>
</svg>
