<svg width="227" height="227" viewBox="0 0 227 227" fill="none" xmlns="http://www.w3.org/2000/svg">
<path d="M135.298 113.497C135.298 125.765 125.352 135.711 113.084 135.711C100.814 135.711 90.8682 125.765 90.8682 113.497C90.8682 101.227 100.814 91.2811 113.084 91.2811C125.352 91.2811 135.298 101.227 135.298 113.497Z" stroke="#01BF63" stroke-opacity="0.15" stroke-width="4" stroke-miterlimit="10" stroke-linecap="round" stroke-linejoin="round"/>
<path d="M113.096 2.42761C51.7409 2.42761 2.0144 52.1512 2.0144 113.485C2.0144 174.822 51.7409 224.567 113.096 224.567C174.453 224.567 224.153 174.822 224.153 113.485C224.153 52.1512 174.453 2.42761 113.096 2.42761ZM113.096 202.353C64.0149 202.353 24.2283 162.545 24.2283 113.485C24.2283 64.4162 64.0149 24.6297 113.096 24.6297C162.174 24.6297 201.939 64.4162 201.939 113.485C201.939 162.545 162.174 202.353 113.096 202.353Z" stroke="#01BF63" stroke-opacity="0.15" stroke-width="4" stroke-miterlimit="10" stroke-linecap="round" stroke-linejoin="round"/>
<path d="M90.8699 113.497C90.8699 110.884 91.4026 108.415 92.2294 106.089H24.5955C24.4026 108.534 24.228 110.985 24.228 113.483C24.228 115.986 24.4026 118.443 24.6069 120.892H92.229C91.4045 118.568 90.8699 116.097 90.8699 113.497Z" stroke="#01BF63" stroke-opacity="0.15" stroke-width="4" stroke-miterlimit="10" stroke-linecap="round" stroke-linejoin="round"/>
<path d="M201.563 106.089H133.941C134.766 108.413 135.298 110.884 135.298 113.498C135.298 116.098 134.766 118.569 133.941 120.895H201.563C201.765 118.447 201.94 115.987 201.94 113.484C201.94 110.986 201.765 108.535 201.563 106.089Z" stroke="#01BF63" stroke-opacity="0.15" stroke-width="4" stroke-miterlimit="10" stroke-linecap="round" stroke-linejoin="round"/>
<path d="M105.676 134.343V201.974C108.127 202.178 110.584 202.352 113.096 202.352C115.597 202.352 118.045 202.178 120.493 201.974L120.491 134.343C118.16 135.169 115.696 135.711 113.085 135.711C110.471 135.711 108 135.169 105.676 134.343Z" stroke="#01BF63" stroke-opacity="0.15" stroke-width="4" stroke-miterlimit="10" stroke-linecap="round" stroke-linejoin="round"/>
</svg>
